<svg width="17" height="17" viewBox="0 0 17 17" fill="none" xmlns="http://www.w3.org/2000/svg">
<path d="M15.9999 11.0272V14.3111C16.0025 14.5526 15.9525 14.7917 15.8534 15.012C15.7543 15.2324 15.6085 15.4287 15.4259 15.5875C15.2433 15.7463 15.0284 15.8639 14.7959 15.932C14.5633 16.0002 14.3187 16.0173 14.0789 15.9823C10.7544 15.5569 7.66655 14.0418 5.30181 11.6757C2.93706 9.30956 1.42987 6.22694 1.01773 2.91355C0.982688 2.67536 0.999715 2.43244 1.06765 2.20142C1.13559 1.97039 1.25283 1.75671 1.41135 1.575C1.56987 1.39329 1.76593 1.24784 1.98612 1.14861C2.2063 1.04937 2.44541 0.998685 2.68708 1.00003H5.9335C6.14088 0.998773 6.34137 1.07408 6.49629 1.21142C6.6512 1.34876 6.74956 1.53839 6.77237 1.74371C6.85561 2.83882 7.13994 3.90942 7.61123 4.90228C7.69205 5.09031 7.70082 5.30134 7.63588 5.49538C7.57095 5.68942 7.43682 5.853 7.25891 5.95513L6.53748 6.36457C6.4335 6.42154 6.34283 6.49984 6.27147 6.5943C6.20011 6.68875 6.14968 6.79722 6.12352 6.91252C6.09735 7.02783 6.09605 7.14735 6.11969 7.26319C6.14333 7.37904 6.19138 7.48857 6.26066 7.58455C7.09057 8.79549 8.14041 9.84123 9.35608 10.6679C9.45243 10.7369 9.56239 10.7848 9.67869 10.8083C9.79499 10.8319 9.91498 10.8306 10.0307 10.8045C10.1465 10.7785 10.2554 10.7282 10.3502 10.6571C10.445 10.5861 10.5236 10.4957 10.5808 10.3922L10.9919 9.67355C11.1005 9.49401 11.2729 9.3617 11.475 9.30289C11.677 9.24407 11.8938 9.26303 12.0824 9.35602C13.0791 9.82547 14.1539 10.1087 15.2533 10.1916C15.4594 10.2143 15.6498 10.3123 15.7877 10.4666C15.9256 10.6209 16.0012 10.8206 15.9999 11.0272Z" stroke="white" stroke-width="2" stroke-linecap="round" stroke-linejoin="round"/>
</svg>
