<svg width="88" height="109" viewBox="0 0 88 109" fill="none" xmlns="http://www.w3.org/2000/svg">
<path d="M6.7746 29.952L19.461 37.8788L19.641 53.5374L29.1819 47.4617L29.0259 31.8049L16.2327 23.8616L6.7746 29.952Z" fill="white"/>
<path d="M19.1234 22.0425L31.9283 29.9444L32.0878 45.5781L44.0723 53.0476L44.2483 70.3168L53.6337 64.2981L53.4919 46.9941L41.5061 39.5228L41.3888 23.9282L28.6809 15.9198L19.1234 22.0425Z" fill="white"/>
<path d="M44.3624 37.6522L56.3806 45.1526L56.5284 62.4397L66.0152 56.3722L65.8659 39.0914L53.7872 31.5548L44.3624 37.6522Z" fill="white"/>
<path d="M31.5741 14.0953L68.7653 37.2462L68.9096 54.4944L78.2666 48.4285L78.1453 31.156L41.0217 7.99457L31.5741 14.0953Z" fill="white"/>
</svg>
