<?xml version="1.0" encoding="UTF-8" standalone="no"?>
<svg
   width="88"
   height="109"
   viewBox="0 0 88 109"
   fill="none"
   version="1.1"
   id="svg10"
   sodipodi:docname="logo_veps 1 blue.svg"
   inkscape:version="1.2.2 (732a01da63, 2022-12-09)"
   xmlns:inkscape="http://www.inkscape.org/namespaces/inkscape"
   xmlns:sodipodi="http://sodipodi.sourceforge.net/DTD/sodipodi-0.dtd"
   xmlns="http://www.w3.org/2000/svg"
   xmlns:svg="http://www.w3.org/2000/svg">
  <sodipodi:namedview
     id="namedview9"
     pagecolor="#ffffff"
     bordercolor="#000000"
     borderopacity="0.25"
     inkscape:showpageshadow="2"
     inkscape:pageopacity="0.0"
     inkscape:pagecheckerboard="0"
     inkscape:deskcolor="#d1d1d1"
     showgrid="false"
     inkscape:zoom="7.6055046"
     inkscape:cx="44.112786"
     inkscape:cy="54.565742"
     inkscape:window-width="1920"
     inkscape:window-height="1009"
     inkscape:window-x="1912"
     inkscape:window-y="-8"
     inkscape:window-maximized="1"
     inkscape:current-layer="svg10" />
  <defs
     id="defs14" />
  <g
     id="g856"
     transform="translate(-1.0518697,10.255729)"
     style="fill:#88afc4;fill-opacity:0.36480686">
    <path
       d="m 6.7746,29.952 12.6864,7.9268 0.18,15.6586 9.5409,-6.0757 -0.156,-15.6568 -12.7932,-7.9433 z"
       fill="white"
       id="path2"
       style="fill:#88afc4;fill-opacity:0.36480686" />
    <path
       d="m 19.1234,22.0425 12.8049,7.9019 0.1595,15.6337 11.9845,7.4695 0.176,17.2692 9.3854,-6.0187 L 53.4919,46.9941 41.5061,39.5228 41.3888,23.9282 28.6809,15.9198 Z"
       fill="white"
       id="path4"
       style="fill:#88afc4;fill-opacity:0.36480686" />
    <path
       d="m 44.3624,37.6522 12.0182,7.5004 0.1478,17.2871 9.4868,-6.0675 -0.1493,-17.2808 -12.0787,-7.5366 z"
       fill="white"
       id="path6"
       style="fill:#88afc4;fill-opacity:0.36480686" />
    <path
       d="m 31.5741,14.0953 37.1912,23.1509 0.1443,17.2482 9.357,-6.0659 L 78.1453,31.156 41.0217,7.99457 Z"
       fill="white"
       id="path8"
       style="fill:#88afc4;fill-opacity:0.36480686" />
  </g>
</svg>
